<svg xmlns="http://www.w3.org/2000/svg" viewBox="0 0 24 24" fill="white">
  <path d="M6.938 4.503c.702 0 1.338.226 1.837.551v2.977C8.847 6.649 8.204 6.066 7.408 6.066c-1.281 0-2.303.722-2.303 2.134 0 1.371 1.022 2.134 2.303 2.134.796 0 1.439-.583 1.367-1.395v3.024c-.499.325-1.135.551-1.837.551-2.779 0-4.715-1.919-4.715-4.714C2.223 6.422 4.16 4.503 6.938 4.503zm11.057 0c.702 0 1.338.226 1.837.551v2.977c-.072-.781-.715-1.364-1.511-1.364-1.281 0-2.303.722-2.303 2.134 0 1.371 1.022 2.134 2.303 2.134.796 0 1.439-.583 1.367-1.395v3.024c-.499.325-1.135.551-1.837.551-2.779 0-4.715-1.919-4.715-4.714.073-2.191 2.01-4.11 4.788-4.11zm-12.95 10.032h3.834v-1.041H4.045v1.041zm9.109 0h5.27v-1.041h-5.27v1.041z"/>
</svg>